<svg width="1365" height="682" viewBox="0 0 1365 682" fill="none" xmlns="http://www.w3.org/2000/svg">
<path d="M341.045 582.649C309.993 583.521 279.076 578.187 250.059 566.951C221.042 555.714 194.493 538.796 171.928 517.162C149.362 495.528 131.223 469.602 118.545 440.863C105.866 412.125 98.8981 381.137 98.0373 349.67C97.1766 318.202 102.44 286.871 113.528 257.465C124.616 228.059 141.31 201.154 162.658 178.286C184.006 155.418 209.59 137.036 237.948 124.188C266.307 111.34 296.884 104.278 327.936 103.406L334.49 343.027L341.045 582.649Z" fill="#FF150D" fill-opacity="0.3"/>
<path d="M448.522 578.152C417.462 577.688 386.796 571.029 358.276 558.554C329.755 546.08 303.939 528.035 282.3 505.449C260.661 482.864 243.624 456.181 232.161 426.923C220.699 397.665 215.035 366.405 215.493 334.929C215.951 303.453 222.522 272.376 234.832 243.474C247.141 214.571 264.948 188.409 287.235 166.48C309.521 144.551 335.852 127.286 364.723 115.669C393.594 104.053 424.44 98.3128 455.5 98.7772L452.796 284.525C445.806 284.42 438.865 285.712 432.367 288.326C425.87 290.941 419.945 294.826 414.929 299.761C409.914 304.696 405.907 310.583 403.136 317.088C400.366 323.592 398.887 330.586 398.784 337.669C398.681 344.753 399.956 351.787 402.535 358.372C405.115 364.956 408.949 370.961 413.819 376.043C418.688 381.126 424.498 385.187 430.917 387.994C437.335 390.802 444.236 392.3 451.226 392.405L448.522 578.152Z" fill="#FF3E24"/>
<path d="M800.25 416C800.25 451.208 793.479 481.052 779.938 505.531C766.396 530.01 748.063 548.604 724.938 561.312C701.917 574.021 676.083 580.375 647.438 580.375C618.688 580.375 592.802 573.969 569.781 561.156C546.76 548.344 528.479 529.75 514.938 505.375C501.5 480.896 494.781 451.104 494.781 416C494.781 380.792 501.5 350.948 514.938 326.469C528.479 301.99 546.76 283.396 569.781 270.687C592.802 257.979 618.688 251.625 647.438 251.625C676.083 251.625 701.917 257.979 724.938 270.687C748.063 283.396 766.396 301.99 779.938 326.469C793.479 350.948 800.25 380.792 800.25 416ZM721.188 416C721.188 395.167 718.219 377.562 712.281 363.187C706.448 348.812 698.01 337.927 686.969 330.531C676.031 323.135 662.854 319.437 647.438 319.437C632.125 319.437 618.948 323.135 607.906 330.531C596.865 337.927 588.375 348.812 582.438 363.187C576.604 377.562 573.688 395.167 573.688 416C573.688 436.833 576.604 454.437 582.438 468.812C588.375 483.187 596.865 494.073 607.906 501.469C618.948 508.865 632.125 512.562 647.438 512.562C662.854 512.562 676.031 508.865 686.969 501.469C698.01 494.073 706.448 483.187 712.281 468.812C718.219 454.437 721.188 436.833 721.188 416ZM921.813 439.125V576H845.406V336H918.063V380.062H920.719C926.031 365.375 935.094 353.865 947.906 345.531C960.719 337.094 975.979 332.875 993.688 332.875C1010.56 332.875 1025.2 336.677 1037.59 344.281C1050.09 351.781 1059.78 362.302 1066.66 375.844C1073.64 389.281 1077.07 405.01 1076.97 423.031V576H1000.56V438.031C1000.67 424.698 997.281 414.281 990.406 406.781C983.635 399.281 974.208 395.531 962.125 395.531C954.104 395.531 947.021 397.302 940.875 400.844C934.833 404.281 930.146 409.229 926.813 415.687C923.583 422.146 921.917 429.958 921.813 439.125ZM1236.46 580.531C1211.36 580.531 1189.69 575.583 1171.46 565.688C1153.34 555.687 1139.38 541.469 1129.59 523.031C1119.9 504.49 1115.05 482.458 1115.05 456.937C1115.05 432.146 1119.95 410.479 1129.74 391.937C1139.53 373.292 1153.34 358.812 1171.15 348.5C1188.96 338.083 1209.95 332.875 1234.12 332.875C1251.2 332.875 1266.83 335.531 1280.99 340.844C1295.16 346.156 1307.4 354.021 1317.71 364.437C1328.02 374.854 1336.04 387.719 1341.77 403.031C1347.5 418.24 1350.37 435.687 1350.37 455.375V474.437H1141.77V430.062H1279.27C1279.17 421.937 1277.24 414.698 1273.49 408.344C1269.74 401.99 1264.59 397.042 1258.02 393.5C1251.57 389.854 1244.12 388.031 1235.68 388.031C1227.14 388.031 1219.48 389.958 1212.71 393.812C1205.94 397.563 1200.58 402.719 1196.62 409.281C1192.66 415.74 1190.58 423.083 1190.37 431.312V476.469C1190.37 486.26 1192.29 494.854 1196.15 502.25C1200 509.542 1205.47 515.219 1212.55 519.281C1219.64 523.344 1228.08 525.375 1237.87 525.375C1244.64 525.375 1250.78 524.437 1256.3 522.562C1261.83 520.688 1266.57 517.927 1270.52 514.281C1274.48 510.635 1277.45 506.156 1279.43 500.844L1349.59 502.875C1346.67 518.604 1340.26 532.302 1330.37 543.969C1320.58 555.531 1307.71 564.542 1291.77 571C1275.84 577.354 1257.4 580.531 1236.46 580.531Z" fill="url(#paint0_linear_12_4)"/>
<defs>
<linearGradient id="paint0_linear_12_4" x1="863" y1="449.5" x2="920" y2="682" gradientUnits="userSpaceOnUse">
<stop/>
<stop offset="1" stop-color="#FF4646"/>
</linearGradient>
</defs>
</svg>
