<svg width="786" height="682" viewBox="0 0 786 682" fill="none" xmlns="http://www.w3.org/2000/svg">
<path d="M341.045 582.649C309.993 583.521 279.076 578.187 250.059 566.951C221.042 555.714 194.493 538.796 171.928 517.162C149.362 495.528 131.223 469.602 118.545 440.863C105.866 412.125 98.8981 381.137 98.0374 349.67C97.1766 318.202 102.44 286.871 113.528 257.465C124.616 228.059 141.31 201.154 162.658 178.286C184.006 155.418 209.59 137.036 237.948 124.188C266.307 111.34 296.884 104.278 327.936 103.406L334.49 343.027L341.045 582.649Z" fill="#FF150D" fill-opacity="0.72"/>
<path d="M448.522 578.152C417.462 577.688 386.796 571.029 358.276 558.554C329.756 546.08 303.939 528.035 282.3 505.449C260.661 482.864 243.624 456.181 232.161 426.923C220.699 397.665 215.035 366.405 215.493 334.929C215.951 303.453 222.522 272.376 234.832 243.474C247.141 214.571 264.948 188.409 287.235 166.48C309.521 144.551 335.852 127.286 364.723 115.669C393.594 104.053 424.44 98.3128 455.5 98.7772L452.796 284.525C445.806 284.42 438.865 285.712 432.367 288.326C425.87 290.94 419.945 294.826 414.929 299.761C409.914 304.696 405.907 310.583 403.136 317.088C400.366 323.592 398.887 330.586 398.784 337.669C398.681 344.753 399.956 351.787 402.535 358.372C405.115 364.956 408.949 370.961 413.819 376.043C418.688 381.126 424.498 385.187 430.917 387.994C437.335 390.802 444.236 392.3 451.226 392.405L448.522 578.152Z" fill="#FF3E24"/>
</svg>
